HIERARCHY
ROOT Hips
{
	OFFSET 0.000000 121.760803 0.000000
	CHANNELS 6 Xposition Yposition Zposition Xrotation Yrotation Zrotation 
	JOINT Spine
	{
		OFFSET 0.072000 7.257294 -0.789700
		CHANNELS 3 Xrotation Yrotation Zrotation
		JOINT Spine1
		{
			OFFSET 0.000000 12.508769 -0.658067
			CHANNELS 3 Xrotation Yrotation Zrotation
			JOINT Spine1_split
			{
				OFFSET 0.000000 12.508769 -0.658067
				CHANNELS 3 Xrotation Yrotation Zrotation
				JOINT Spine2
				{
					OFFSET 0.000000 12.508769 -0.658067
					CHANNELS 3 Xrotation Yrotation Zrotation
					JOINT Neck
					{
						OFFSET 0.000000 14.033295 7.520400
						CHANNELS 3 Xrotation Yrotation Zrotation
						JOINT Head
						{
							OFFSET 0.000000 8.198502 5.703100
							CHANNELS 3 Xrotation Yrotation Zrotation
							JOINT HeadTop_End
							{
								OFFSET 0.000000 17.760803 13.332701
								CHANNELS 3 Xrotation Yrotation Zrotation
								End Site
								{
									OFFSET 0.000000 0.000000 0.000000
								}
							}
						}
					}
					JOINT LeftShoulder
					{
						OFFSET 6.292450 5.785301 -0.669000
						CHANNELS 3 Xrotation Yrotation Zrotation
						JOINT LeftShoulder_split
						{
							OFFSET 6.292450 5.785301 -0.669000
							CHANNELS 3 Xrotation Yrotation Zrotation
							JOINT LeftArm
							{
								OFFSET 13.907140 -6.093903 1.965100
								CHANNELS 3 Xrotation Yrotation Zrotation
								JOINT LeftForeArm
								{
									OFFSET 34.140198 0.000000 0.000000
									CHANNELS 3 Xrotation Yrotation Zrotation
									JOINT LeftHand
									{
										OFFSET 40.960209 0.000000 0.000000
										CHANNELS 3 Xrotation Yrotation Zrotation
										JOINT LeftHandThumb1
										{
											OFFSET 10.006996 -7.170425 9.573125
											CHANNELS 3 Xrotation Yrotation Zrotation
											JOINT LeftHandThumb2
											{
												OFFSET 1.835007 -1.059448 1.059443
												CHANNELS 3 Xrotation Yrotation Zrotation
												JOINT LeftHandThumb3
												{
													OFFSET 2.112267 -1.219513 1.219518
													CHANNELS 3 Xrotation Yrotation Zrotation
													JOINT LeftHandThumb4
													{
														OFFSET 4.843811 -2.796570 2.796576
														CHANNELS 3 Xrotation Yrotation Zrotation
														End Site
														{
															OFFSET 0.000000 0.000000 0.000000
														}
													}
												}
											}
										}
										JOINT LeftHandIndex1
										{
											OFFSET 18.389847 -0.922348 4.596882
											CHANNELS 3 Xrotation Yrotation Zrotation
											JOINT LeftHandIndex2
											{
												OFFSET 4.711273 0.000000 0.000000
												CHANNELS 3 Xrotation Yrotation Zrotation
												JOINT LeftHandIndex3
												{
													OFFSET 2.886131 0.000000 0.000000
													CHANNELS 3 Xrotation Yrotation Zrotation
													JOINT LeftHandIndex4
													{
														OFFSET 6.145912 0.000000 0.000000
														CHANNELS 3 Xrotation Yrotation Zrotation
														End Site
														{
															OFFSET 0.000000 0.000000 0.000000
														}
													}
												}
											}
										}
										JOINT LeftHandMiddle1
										{
											OFFSET 18.013008 0.000000 0.000000
											CHANNELS 3 Xrotation Yrotation Zrotation
											JOINT LeftHandMiddle2
											{
												OFFSET 4.946693 0.000000 0.000000
												CHANNELS 3 Xrotation Yrotation Zrotation
												JOINT LeftHandMiddle3
												{
													OFFSET 3.342232 0.000000 0.000000
													CHANNELS 3 Xrotation Yrotation Zrotation
													JOINT LeftHandMiddle4
													{
														OFFSET 4.461754 0.000000 0.000000
														CHANNELS 3 Xrotation Yrotation Zrotation
														End Site
														{
															OFFSET 0.000000 0.000000 0.000000
														}
													}
												}
											}
										}
										JOINT LeftHandRing1
										{
											OFFSET 15.849892 -0.102921 -4.126150
											CHANNELS 3 Xrotation Yrotation Zrotation
											JOINT LeftHandRing2
											{
												OFFSET 3.527054 0.000000 0.000000
												CHANNELS 3 Xrotation Yrotation Zrotation
												JOINT LeftHandRing3
												{
													OFFSET 2.961098 0.000000 0.000000
													CHANNELS 3 Xrotation Yrotation Zrotation
													JOINT LeftHandRing4
													{
														OFFSET 4.927200 0.000000 0.000000
														CHANNELS 3 Xrotation Yrotation Zrotation
														End Site
														{
															OFFSET 0.000000 0.000000 0.000000
														}
													}
												}
											}
										}
										JOINT LeftHandPinky1
										{
											OFFSET 12.791824 -0.832031 -6.799156
											CHANNELS 3 Xrotation Yrotation Zrotation
											JOINT LeftHandPinky2
											{
												OFFSET 3.327133 0.000000 0.000000
												CHANNELS 3 Xrotation Yrotation Zrotation
												JOINT LeftHandPinky3
												{
													OFFSET 3.014900 0.000000 0.000000
													CHANNELS 3 Xrotation Yrotation Zrotation
													JOINT LeftHandPinky4
													{
														OFFSET 5.847786 0.000000 0.000000
														CHANNELS 3 Xrotation Yrotation Zrotation
														End Site
														{
															OFFSET 0.000000 0.000000 0.000000
														}
													}
												}
											}
										}
									}
								}
							}
						}
					}
					JOINT RightShoulder
					{
						OFFSET -6.292450 5.785301 -0.669000
						CHANNELS 3 Xrotation Yrotation Zrotation
						JOINT RightShoulder_split
						{
							OFFSET -6.292450 5.785301 -0.669000
							CHANNELS 3 Xrotation Yrotation Zrotation
							JOINT RightArm
							{
								OFFSET -13.907140 -6.093903 1.965100
								CHANNELS 3 Xrotation Yrotation Zrotation
								JOINT RightForeArm
								{
									OFFSET -34.140198 0.000000 0.000000
									CHANNELS 3 Xrotation Yrotation Zrotation
									JOINT RightHand
									{
										OFFSET -40.960209 0.000000 0.000000
										CHANNELS 3 Xrotation Yrotation Zrotation
										JOINT RightHandThumb1
										{
											OFFSET -10.007050 -7.170456 9.573117
											CHANNELS 3 Xrotation Yrotation Zrotation
											JOINT RightHandThumb2
											{
												OFFSET -1.835007 -1.059448 1.059443
												CHANNELS 3 Xrotation Yrotation Zrotation
												JOINT RightHandThumb3
												{
													OFFSET -2.112267 -1.219513 1.219518
													CHANNELS 3 Xrotation Yrotation Zrotation
													JOINT RightHandThumb4
													{
														OFFSET -4.843834 -2.796585 2.796590
														CHANNELS 3 Xrotation Yrotation Zrotation
														End Site
														{
															OFFSET 0.000000 0.000000 0.000000
														}
													}
												}
											}
										}
										JOINT RightHandIndex1
										{
											OFFSET -18.389870 -0.922424 4.596786
											CHANNELS 3 Xrotation Yrotation Zrotation
											JOINT RightHandIndex2
											{
												OFFSET -4.711273 0.000000 0.000000
												CHANNELS 3 Xrotation Yrotation Zrotation
												JOINT RightHandIndex3
												{
													OFFSET -2.886131 0.000000 0.000000
													CHANNELS 3 Xrotation Yrotation Zrotation
													JOINT RightHandIndex4
													{
														OFFSET -6.145920 0.000000 0.000000
														CHANNELS 3 Xrotation Yrotation Zrotation
														End Site
														{
															OFFSET 0.000000 0.000000 0.000000
														}
													}
												}
											}
										}
										JOINT RightHandMiddle1
										{
											OFFSET -18.013008 0.000000 0.000000
											CHANNELS 3 Xrotation Yrotation Zrotation
											JOINT RightHandMiddle2
											{
												OFFSET -4.946693 0.000000 0.000000
												CHANNELS 3 Xrotation Yrotation Zrotation
												JOINT RightHandMiddle3
												{
													OFFSET -3.342232 0.000000 0.000000
													CHANNELS 3 Xrotation Yrotation Zrotation
													JOINT RightHandMiddle4
													{
														OFFSET -4.461754 0.000000 0.000000
														CHANNELS 3 Xrotation Yrotation Zrotation
														End Site
														{
															OFFSET 0.000000 0.000000 0.000000
														}
													}
												}
											}
										}
										JOINT RightHandRing1
										{
											OFFSET -15.849876 -0.102936 -4.126237
											CHANNELS 3 Xrotation Yrotation Zrotation
											JOINT RightHandRing2
											{
												OFFSET -3.527054 0.000000 0.000000
												CHANNELS 3 Xrotation Yrotation Zrotation
												JOINT RightHandRing3
												{
													OFFSET -2.961098 0.000000 0.000000
													CHANNELS 3 Xrotation Yrotation Zrotation
													JOINT RightHandRing4
													{
														OFFSET -4.927200 0.000000 0.000000
														CHANNELS 3 Xrotation Yrotation Zrotation
														End Site
														{
															OFFSET 0.000000 0.000000 0.000000
														}
													}
												}
											}
										}
										JOINT RightHandPinky1
										{
											OFFSET -12.791786 -0.832077 -6.799222
											CHANNELS 3 Xrotation Yrotation Zrotation
											JOINT RightHandPinky2
											{
												OFFSET -3.327133 0.000000 0.000000
												CHANNELS 3 Xrotation Yrotation Zrotation
												JOINT RightHandPinky3
												{
													OFFSET -3.014900 0.000000 0.000000
													CHANNELS 3 Xrotation Yrotation Zrotation
													JOINT RightHandPinky4
													{
														OFFSET -5.847786 0.000000 0.000000
														CHANNELS 3 Xrotation Yrotation Zrotation
														End Site
														{
															OFFSET 0.000000 0.000000 0.000000
														}
													}
												}
											}
										}
									}
								}
							}
						}
					}
				}
			}
		}
	}
	JOINT LeftUpLeg
	{
		OFFSET 13.026900 -6.336304 -1.092800
		CHANNELS 3 Xrotation Yrotation Zrotation
		JOINT LeftLeg
		{
			OFFSET 0.524474 -46.096886 9.782700
			CHANNELS 3 Xrotation Yrotation Zrotation
			JOINT LeftFoot
			{
				OFFSET -0.524474 -53.427422 -12.948200
				CHANNELS 3 Xrotation Yrotation Zrotation
				JOINT LeftToeBase
				{
					OFFSET 0.192200 -14.009700 16.364100
					CHANNELS 3 Xrotation Yrotation Zrotation
					JOINT LeftToe_End
					{
						OFFSET -1.784700 -0.561700 9.474800
						CHANNELS 3 Xrotation Yrotation Zrotation
						End Site
						{
							OFFSET 0.000000 0.000000 0.000000
						}
					}
				}
			}
		}
	}
	JOINT RightUpLeg
	{
		OFFSET -12.883000 -6.336304 -1.092800
		CHANNELS 3 Xrotation Yrotation Zrotation
		JOINT RightLeg
		{
			OFFSET -0.524587 -46.096825 9.782800
			CHANNELS 3 Xrotation Yrotation Zrotation
			JOINT RightFoot
			{
				OFFSET 0.524587 -53.427383 -12.948300
				CHANNELS 3 Xrotation Yrotation Zrotation
				JOINT RightToeBase
				{
					OFFSET -0.192200 -14.009700 16.364100
					CHANNELS 3 Xrotation Yrotation Zrotation
					JOINT RightToe_End
					{
						OFFSET 1.784700 -0.561700 9.474800
						CHANNELS 3 Xrotation Yrotation Zrotation
						End Site
						{
							OFFSET 0.000000 0.000000 0.000000
						}
					}
				}
			}
		}
	}
}
MOTION
Frames: 4
Frame Time: 0.016667
4.954719 97.822563 -4.887392 3.737361 -55.724877 3.728576 10.474560 12.285110 -4.258806 3.762002 4.020633 -2.477473 0.000000 0.000000 0.000000 3.818222 3.984992 -2.462739 0.516758 1.074230 7.089724 -7.298615 30.311222 -5.053249 0.000000 -0.000000 0.000000 0.201636 -6.892848 -14.624142 0.000000 0.000000 0.000000 -24.181363 -39.117706 -26.205467 -2.022113 -73.632841 -1.555835 -5.774905 23.551655 40.520524 40.109903 -15.297184 -0.360488 5.639919 28.097807 11.338774 1.088568 40.896304 22.734006 0.000001 -0.000002 0.000002 6.882260 2.840028 -61.140500 8.248011 7.640047 -89.897878 2.146158 8.173408 -41.827805 0.000001 -0.000001 0.000001 -2.345525 4.688880 -62.655238 8.754163 9.897064 -87.051232 1.995354 4.929285 -37.483375 0.000005 -0.000001 -0.000000 -9.042494 10.045618 -60.766185 8.523962 9.508859 -66.892940 6.576519 9.896791 -70.385093 0.000001 0.000001 -0.000000 -17.946872 14.755022 -51.485918 8.868412 8.667045 -84.812091 4.540484 8.852644 -59.153004 0.000003 -0.000002 0.000000 3.144282 20.729240 -9.731365 0.000000 0.000000 0.000000 -14.532872 28.739185 7.272878 -179.799348 72.546656 179.534186 -65.149520 13.409693 -51.164496 0.277448 -1.521474 -1.570535 7.169014 -41.689665 -15.773569 -4.517986 11.064507 4.674005 0.000001 -0.000001 0.000001 6.412775 -12.738386 14.389498 9.941772 -7.465194 101.743256 4.405041 -9.947462 61.138861 0.000005 -0.000001 0.000001 2.653152 -11.302273 44.730882 9.916056 -9.880675 94.351161 8.462609 -8.530815 83.992271 -0.000002 -0.000002 0.000004 2.140152 -7.454441 61.764977 9.609210 -8.992459 89.388673 11.175508 -10.370866 97.638121 0.000002 0.000001 -0.000003 -4.886705 -23.798138 68.396094 13.518285 -7.949241 112.864962 8.544489 -10.117954 85.305620 0.000000 -0.000000 -0.000001 -44.611381 1.819036 23.370636 43.282482 -3.522920 1.313504 -1.665817 -6.599059 -17.932709 -1.836430 -0.000622 -0.000036 -0.000000 -0.000001 0.000000 -39.852921 -20.847583 -38.124463 48.140270 8.266010 -3.414321 -13.325718 -2.506467 19.481395 -0.001650 -0.000382 0.000010 -0.000000 -0.000000 -0.000000 
5.037514 97.992638 -4.918084 4.012721 -56.464744 3.886273 11.086853 12.605212 -4.836509 3.882953 4.155483 -2.595617 0.000000 0.000000 0.000000 3.940177 4.114883 -2.582873 0.077768 1.097566 7.089563 -9.455424 30.205887 -4.759085 -0.000001 -0.000000 0.000000 0.273695 -7.175085 -13.814898 0.000000 0.000000 0.000000 -27.151308 -40.609310 -28.235266 -1.969243 -72.750141 -1.517578 -3.652108 23.449916 41.380653 40.109903 -15.297185 -0.360487 5.639919 28.097807 11.338771 1.088567 40.896304 22.734010 -0.000002 -0.000001 0.000000 6.882267 2.840026 -61.140500 8.248006 7.640044 -89.897878 2.146164 8.173408 -41.827805 0.000001 0.000001 0.000001 -2.345526 4.688878 -62.655238 8.754160 9.897064 -87.051239 1.995351 4.929283 -37.483368 0.000003 -0.000002 -0.000000 -9.042495 10.045616 -60.766185 8.523965 9.508857 -66.892940 6.576520 9.896793 -70.385093 -0.000000 0.000001 0.000001 -17.946872 14.755020 -51.485915 8.868412 8.667046 -84.812085 4.540483 8.852642 -59.153004 -0.000002 -0.000000 0.000002 2.514158 21.233542 -6.811736 0.000000 0.000000 0.000000 -5.943690 30.749932 2.272443 -179.151982 73.423810 179.050131 -67.159536 12.064837 -48.542615 0.277485 -1.521468 -1.570579 7.169031 -41.689692 -15.773504 -4.518002 11.064505 4.673980 -0.000000 -0.000002 -0.000001 6.412829 -12.738454 14.389530 9.941784 -7.465115 101.743229 4.405023 -9.947450 61.138888 -0.000001 0.000000 -0.000000 2.653157 -11.302305 44.730892 9.916093 -9.880698 94.351188 8.462595 -8.530825 83.992230 0.000001 0.000002 -0.000002 2.140158 -7.454487 61.765005 9.609267 -8.992487 89.388721 11.175543 -10.370864 97.638114 -0.000000 0.000001 -0.000004 -4.886716 -23.798136 68.396114 13.518243 -7.949266 112.864976 8.544484 -10.117933 85.305675 0.000000 0.000000 -0.000001 -44.449146 2.169369 23.776604 43.067765 -3.647991 1.302810 -1.656207 -6.191261 -17.956181 -1.836430 -0.000623 -0.000035 0.000000 0.000000 0.000000 -40.042797 -20.665605 -37.821633 47.780961 7.492999 -3.468306 -13.007426 -1.301697 19.651431 -0.001650 -0.000382 0.000010 -0.000000 -0.000000 0.000000 
5.171883 98.263268 -4.942294 4.274828 -57.325190 4.009213 11.671925 12.660173 -5.391829 4.041846 4.210455 -2.712400 0.000000 0.000000 0.000000 4.093328 4.173067 -2.703598 -0.418004 1.150578 7.039629 -11.340491 30.556521 -4.537707 0.000000 0.000000 -0.000000 0.377112 -7.436385 -12.890568 0.000000 0.000000 0.000000 -30.060653 -41.102098 -29.619385 -2.081451 -72.317312 -1.635737 -1.913086 23.426603 42.068160 40.109910 -15.297185 -0.360486 5.639918 28.097802 11.338769 1.088567 40.896307 22.734013 -0.000001 -0.000003 0.000003 6.882264 2.840028 -61.140500 8.248008 7.640046 -89.897871 2.146159 8.173409 -41.827805 -0.000000 0.000002 -0.000000 -2.345521 4.688876 -62.655231 8.754166 9.897060 -87.051239 1.995351 4.929283 -37.483368 0.000004 -0.000000 0.000001 -9.042491 10.045614 -60.766178 8.523967 9.508859 -66.892940 6.576515 9.896793 -70.385093 0.000002 -0.000001 0.000001 -17.946868 14.755019 -51.485918 8.868416 8.667040 -84.812085 4.540485 8.852636 -59.153004 0.000003 0.000001 0.000000 2.559574 21.019407 -6.830151 0.000000 0.000000 0.000000 -1.561702 33.072063 0.691373 -178.933881 75.268739 179.032236 -68.145945 10.673599 -45.251748 0.277466 -1.521469 -1.570494 7.168981 -41.689631 -15.773576 -4.517994 11.064497 4.673956 -0.000000 0.000001 -0.000000 6.412859 -12.738418 14.389554 9.941738 -7.465188 101.743277 4.405037 -9.947452 61.138881 0.000001 0.000001 -0.000000 2.653189 -11.302285 44.730943 9.916058 -9.880689 94.351134 8.462586 -8.530838 83.992209 -0.000000 -0.000001 0.000003 2.140172 -7.454477 61.765032 9.609251 -8.992496 89.388687 11.175497 -10.370845 97.638155 0.000001 -0.000003 0.000003 -4.886685 -23.798136 68.396148 13.518286 -7.949282 112.864969 8.544516 -10.117910 85.305641 0.000000 -0.000000 0.000000 -44.151350 2.571941 24.206286 42.700820 -3.735389 1.294799 -1.595660 -5.725020 -17.977601 -1.836430 -0.000623 -0.000036 0.000000 0.000000 -0.000000 -40.243000 -20.636109 -37.254638 47.359695 8.800001 -3.387740 -12.572787 -2.014626 18.953529 -0.001650 -0.000382 0.000010 -0.000000 -0.000000 -0.000000 
5.343909 98.508804 -4.966596 4.547487 -58.462041 4.130496 12.227818 12.425658 -5.908448 4.167030 4.169349 -2.813603 0.000000 0.000000 0.000000 4.213588 4.134010 -2.809066 -0.982835 1.275622 6.943003 -12.696572 31.538805 -4.386470 -0.000000 -0.000000 0.000000 0.469997 -7.672753 -11.958913 0.000000 0.000000 0.000000 -32.668324 -40.481107 -29.999325 -2.290956 -72.441956 -1.843432 -0.679275 23.671096 42.502949 40.109903 -15.297185 -0.360487 5.639916 28.097805 11.338769 1.088570 40.896304 22.734015 0.000001 0.000002 -0.000000 6.882260 2.840027 -61.140500 8.248008 7.640043 -89.897878 2.146160 8.173409 -41.827805 0.000000 -0.000004 0.000001 -2.345528 4.688880 -62.655231 8.754160 9.897064 -87.051239 1.995349 4.929282 -37.483375 -0.000000 -0.000001 0.000000 -9.042492 10.045617 -60.766178 8.523964 9.508860 -66.892947 6.576521 9.896792 -70.385093 -0.000001 0.000001 0.000000 -17.946867 14.755022 -51.485918 8.868409 8.667044 -84.812085 4.540484 8.852641 -59.153010 -0.000001 -0.000001 -0.000000 1.947803 20.533126 -7.026574 0.000000 0.000000 0.000000 -2.633523 35.447497 2.378814 -179.601382 76.885404 179.927168 -68.793310 7.356055 -41.081184 0.277457 -1.521472 -1.570560 7.169037 -41.689682 -15.773540 -4.517981 11.064507 4.673985 0.000001 0.000004 0.000000 6.412759 -12.738409 14.389518 9.941781 -7.465189 101.743229 4.405027 -9.947409 61.138813 0.000002 -0.000001 0.000000 2.653160 -11.302305 44.730916 9.916106 -9.880681 94.351168 8.462639 -8.530833 83.992236 -0.000002 -0.000001 0.000002 2.140142 -7.454480 61.765005 9.609256 -8.992447 89.388701 11.175465 -10.370857 97.638121 0.000001 0.000001 -0.000002 -4.886748 -23.798114 68.396107 13.518254 -7.949274 112.864935 8.544489 -10.117958 85.305661 0.000000 0.000001 0.000001 -43.845908 3.097890 24.787933 42.421345 -3.940357 1.277526 -1.589352 -5.060861 -17.992253 -1.836430 -0.000623 -0.000036 -0.000000 -0.000000 0.000000 -40.443483 -20.386252 -36.636838 46.888402 9.051347 -3.377021 -12.065672 -1.616431 18.665676 -0.001650 -0.000382 0.000010 0.000000 -0.000000 -0.000000 
